<svg width="23" height="23" viewBox="0 0 23 23" fill="none" xmlns="http://www.w3.org/2000/svg">
<rect width="20.8924" height="20.8924" fill="black" fill-opacity="0" transform="translate(1 1)"/>
<path d="M13.957 2.9644L19.904 8.9114" stroke="white" stroke-width="1.5" stroke-linecap="round" stroke-linejoin="round"/>
<path d="M11.6251 4.2584C8.70414 3.0004 5.18614 3.5644 2.80014 5.9504C2.31114 6.4394 1.90814 6.9804 1.57214 7.5494L4.99914 10.9774" stroke="white" stroke-width="1.5" stroke-linecap="round" stroke-linejoin="round"/>
<path d="M18.6098 11.2114C19.8998 14.1434 19.3438 17.6914 16.9428 20.0924C16.4538 20.5814 15.9128 20.9844 15.3428 21.3204L11.8848 17.8634" stroke="white" stroke-width="1.5" stroke-linecap="round" stroke-linejoin="round"/>
<path fill-rule="evenodd" clip-rule="evenodd" d="M9.16445 19.385L3.50745 13.728C3.50745 13.728 8.33945 1.707 21.8924 1C21.1264 14.494 9.16445 19.385 9.16445 19.385V19.385Z" stroke="white" stroke-width="1.5" stroke-linecap="round" stroke-linejoin="round"/>
<path fill-rule="evenodd" clip-rule="evenodd" d="M11.2857 8.7784C12.0667 7.9974 13.3327 7.9974 14.1137 8.7784C14.8947 9.5594 14.8947 10.8254 14.1137 11.6064C13.3327 12.3874 12.0667 12.3874 11.2857 11.6064C10.5047 10.8254 10.5047 9.5594 11.2857 8.7784V8.7784Z" stroke="white" stroke-width="1.5" stroke-linecap="round" stroke-linejoin="round"/>
<path fill-rule="evenodd" clip-rule="evenodd" d="M1.60763 18.4568C2.38863 17.6758 3.65463 17.6758 4.43563 18.4568C5.21663 19.2378 5.21663 20.5038 4.43563 21.2848C3.65463 22.0658 1.02163 21.8708 1.02163 21.8708C1.02163 21.8708 0.82663 19.2378 1.60763 18.4568V18.4568Z" stroke="white" stroke-width="1.5" stroke-linecap="round" stroke-linejoin="round"/>
</svg>
