<svg width="28" height="29" viewBox="0 0 28 29" fill="none" xmlns="http://www.w3.org/2000/svg">
<path fill-rule="evenodd" clip-rule="evenodd" d="M14.4404 23.7289C13.5963 22.6602 12.5872 20.8488 12.1651 19.6171C8.89908 19.6171 4.93578 17.045 4.93578 11.9731C4.93578 7.69831 7.52294 4.38351 12.1468 4.38351C16.5321 4.38351 19.3945 8.02436 19.3945 12.0818C19.3945 16.1936 16.7706 18.7658 14.8807 18.7658C14.8807 18.7658 16.3303 22.2798 19.4679 24.7976C20.844 25.9026 24.2569 28.2936 27.4312 29L28 28.2392C23.945 26.6633 20.9541 24.2361 20.9541 21.99C20.9541 20.6677 21.3028 19.9975 22.0367 18.965C23.5413 16.8819 24.2569 14.5091 24.2569 12.1724C24.2569 5.23485 18.789 0 12.055 0C5.57798 0 0 5.21674 0 11.9913C0.0366972 19.0556 6.45872 25.178 14.4404 23.7289Z" fill="#F8B333"/>
</svg>
